<?xml version="1.0" encoding="UTF-8"?>
<!-- Generated by Pixelmator Pro 4.0 -->
<svg width="512" height="512" viewBox="0 0 512 512" xmlns="http://www.w3.org/2000/svg">
    <path id="path1" fill="#000000" stroke="none" d="M 141.311996 153.600006 L 370.687988 153.600006 C 375.212311 153.600006 378.880005 158.110474 378.880005 163.674347 L 378.880005 163.674347 C 378.880005 169.238251 375.212311 173.748718 370.687988 173.748718 L 141.311996 173.748718 C 136.787689 173.748718 133.119995 169.238251 133.119995 163.674347 L 133.119995 163.674347 C 133.119995 158.110474 136.787689 153.600006 141.311996 153.600006 Z"/>
    <path id="path2" fill="#000000" stroke="none" d="M 141.311996 211.157623 L 370.687988 211.157623 C 375.212311 211.157623 378.880005 215.668121 378.880005 221.231995 L 378.880005 221.231995 C 378.880005 226.795898 375.212311 231.306366 370.687988 231.306366 L 141.311996 231.306366 C 136.787689 231.306366 133.119995 226.795898 133.119995 221.231995 L 133.119995 221.231995 C 133.119995 215.668121 136.787689 211.157623 141.311996 211.157623 Z"/>
    <path id="path3" fill="#000000" stroke="none" d="M 141.311996 269.715302 L 370.687988 269.715302 C 375.212311 269.715302 378.880005 274.225708 378.880005 279.789642 L 378.880005 279.789642 C 378.880005 285.353577 375.212311 289.864014 370.687988 289.864014 L 141.311996 289.864014 C 136.787689 289.864014 133.119995 285.353577 133.119995 279.789642 L 133.119995 279.789642 C 133.119995 274.225708 136.787689 269.715302 141.311996 269.715302 Z"/>
</svg>
